# xmcd
#
# Track frame offsets: 
#        150
#        21231
#        39513
#        60271
#        77293
#        98037
#        128301
#        145981
#        163759
#        182781
#        212122
#        227735
#        249547
#        267259
#        294018
#        314137
#
# Disc length: 4427 seconds
#
# Revision: 0
# Processed by: cddbd v1.5.1PL0 Copyright (c) Steve Scherf et al.
# Submitted via: ExactAudioCopy v0.95a3
#
DISCID=d4114910
DTITLE=Various Artist - Enigmatic Super Hits
DYEAR=2001
DGENRE=Pop
TTITLE0=ATB With Enigma/Enigmatic Encounter
TTITLE1=Deep Forest/La Legende (Part 2)
TTITLE2=Mike Oldfield/Let There Be Light
TTITLE3=Dao Dezi/An Tri Breuer (Love Palace Mix)
TTITLE4=Delerium/Hailands
TTITLE5=Enigma/Out From The Deep
TTITLE6=Deep Forest/Sweet Lullaby
TTITLE7=Era/Divano
TTITLE8=Enigma/Traces
TTITLE9=Manschoud/Manschoud
TTITLE10=Enigma With D-Emotion/Projectplaninata
TTITLE11=Michael Sanches/Tholos
TTITLE12=Suen Math/L'esperanza
TTITLE13=Christopher Franke/Morphing Space
TTITLE14=Wes Madico/Woukase
TTITLE15=Relaxon/In The Beginning
EXTD=
EXTT0=
EXTT1=
EXTT2=
EXTT3=
EXTT4=
EXTT5=
EXTT6=
EXTT7=
EXTT8=
EXTT9=
EXTT10=
EXTT11=
EXTT12=
EXTT13=
EXTT14=
EXTT15=
PLAYORDER=
